HIERARCHY
ROOT newVegas:Hips
{
	OFFSET 0.000000 96.479958 0.000000
	CHANNELS 6 Xposition Yposition Zposition Xrotation Yrotation Zrotation
	JOINT newVegas:Pelvis
	{
		OFFSET 0.000000 0.000000 0.000000
		CHANNELS 3 Xrotation Yrotation Zrotation
		JOINT newVegas:LeftUpLeg
		{
			OFFSET 18.735201 -5.666702 -4.541200
			CHANNELS 3 Xrotation Yrotation Zrotation
			JOINT newVegas:LeftLeg
			{
				OFFSET -0.021200 -31.938179 0.493100
				CHANNELS 3 Xrotation Yrotation Zrotation
				JOINT newVegas:LeftFoot
				{
					OFFSET 0.021200 -31.938179 -4.336299
					CHANNELS 3 Xrotation Yrotation Zrotation
					JOINT newVegas:LeftToeBase
					{
						OFFSET 0.943001 -26.722000 15.023500
						CHANNELS 3 Xrotation Yrotation Zrotation
						End Site
						{
							OFFSET 0.000000 30.670183 0.000000
						}
					}
				}
				JOINT newVegas:Left_PantLeg
				{
					OFFSET 0.663870 -9.044666 -1.108900
					CHANNELS 3 Xrotation Yrotation Zrotation
					End Site
					{
						OFFSET 1.415995 20.635357 0.000000
					}
				}
			}
		}
		JOINT newVegas:RightUpLeg
		{
			OFFSET -18.735201 -5.666702 -4.541200
			CHANNELS 3 Xrotation Yrotation Zrotation
			JOINT newVegas:RightLeg
			{
				OFFSET 0.018946 -31.938133 0.493100
				CHANNELS 3 Xrotation Yrotation Zrotation
				JOINT newVegas:RightFoot
				{
					OFFSET -0.018946 -31.938126 -4.336299
					CHANNELS 3 Xrotation Yrotation Zrotation
					JOINT newVegas:RightToeBase
					{
						OFFSET -0.943001 -26.722004 15.023500
						CHANNELS 3 Xrotation Yrotation Zrotation
						End Site
						{
							OFFSET 0.000000 30.670187 0.000000
						}
					}
				}
				JOINT newVegas:Right_PantLeg
				{
					OFFSET -0.661674 -9.044716 -1.108900
					CHANNELS 3 Xrotation Yrotation Zrotation
					End Site
					{
						OFFSET -1.415958 20.635269 0.000000
					}
				}
			}
		}
	}
	JOINT newVegas:Spine
	{
		OFFSET 0.000000 10.199997 -0.299500
		CHANNELS 3 Xrotation Yrotation Zrotation
		JOINT newVegas:Spine1
		{
			OFFSET 0.000000 11.900002 -1.516600
			CHANNELS 3 Xrotation Yrotation Zrotation
			JOINT newVegas:Spine2
			{
				OFFSET 0.000000 13.600006 -2.842500
				CHANNELS 3 Xrotation Yrotation Zrotation
				JOINT newVegas:Neck
				{
					OFFSET 0.000000 9.624100 -2.890100
					CHANNELS 3 Xrotation Yrotation Zrotation
					JOINT newVegas:Head
					{
						OFFSET 0.000000 14.068802 -1.351900
						CHANNELS 3 Xrotation Yrotation Zrotation
						JOINT newVegas:Hair_Back
						{
							OFFSET 0.000000 3.231903 -17.524799
							CHANNELS 3 Xrotation Yrotation Zrotation
							End Site
							{
								OFFSET 0.000000 19.849884 0.000000
							}
						}
						JOINT newVegas:Hair_Front
						{
							OFFSET 0.000000 31.260406 4.573800
							CHANNELS 3 Xrotation Yrotation Zrotation
							JOINT newVegas:Hair_Front1
							{
								OFFSET 0.000000 2.284103 11.993300
								CHANNELS 3 Xrotation Yrotation Zrotation
								JOINT newVegas:Hair_Front2
								{
									OFFSET 0.000000 2.284103 11.993300
									CHANNELS 3 Xrotation Yrotation Zrotation
									End Site
									{
										OFFSET 0.000000 12.208862 0.000000
									}
								}
							}
						}
						JOINT newVegas:Jowel
						{
							OFFSET 0.000000 -7.458206 6.864100
							CHANNELS 3 Xrotation Yrotation Zrotation
							End Site
							{
								OFFSET 0.000000 19.849884 0.000000
							}
						}
					}
				}
				JOINT newVegas:LeftShoulder
				{
					OFFSET 15.263000 10.923401 -0.547700
					CHANNELS 3 Xrotation Yrotation Zrotation
					JOINT newVegas:LeftArm
					{
						OFFSET 25.438599 -2.830597 -13.032500
						CHANNELS 3 Xrotation Yrotation Zrotation
						JOINT newVegas:LeftForeArm
						{
							OFFSET 29.960503 0.000000 0.000000
							CHANNELS 3 Xrotation Yrotation Zrotation
							JOINT newVegas:LeftHand
							{
								OFFSET 27.849251 0.000000 0.000000
								CHANNELS 3 Xrotation Yrotation Zrotation
								JOINT newVegas:LeftHandThumb1
								{
									OFFSET 4.487587 -3.305161 6.305391
									CHANNELS 3 Xrotation Yrotation Zrotation
									JOINT newVegas:LeftHandThumb2
									{
										OFFSET 5.480453 -3.164139 3.164143
										CHANNELS 3 Xrotation Yrotation Zrotation
										JOINT newVegas:LeftHandThumb3
										{
											OFFSET 5.159721 -2.978973 2.978967
											CHANNELS 3 Xrotation Yrotation Zrotation
											End Site
											{
												OFFSET 2.494507 5.926697 1.738678
											}
										}
									}
								}
								JOINT newVegas:LeftHandIndex1
								{
									OFFSET 18.578728 -0.527832 5.208049
									CHANNELS 3 Xrotation Yrotation Zrotation
									JOINT newVegas:LeftHandIndex2
									{
										OFFSET 3.192009 0.000000 0.000000
										CHANNELS 3 Xrotation Yrotation Zrotation
										JOINT newVegas:LeftHandIndex3
										{
											OFFSET 3.835129 0.000000 0.000000
											CHANNELS 3 Xrotation Yrotation Zrotation
											End Site
											{
												OFFSET -0.034599 3.816971 0.371180
											}
										}
									}
								}
								JOINT newVegas:LeftHandMiddle1
								{
									OFFSET 18.476105 0.000000 0.000000
									CHANNELS 3 Xrotation Yrotation Zrotation
									JOINT newVegas:LeftHandMiddle2
									{
										OFFSET 3.324875 0.000000 0.000000
										CHANNELS 3 Xrotation Yrotation Zrotation
										JOINT newVegas:LeftHandMiddle3
										{
											OFFSET 4.596550 0.000000 0.000000
											CHANNELS 3 Xrotation Yrotation Zrotation
											End Site
											{
												OFFSET 0.057701 4.578827 0.399218
											}
										}
									}
								}
								JOINT newVegas:LeftHandRing1
								{
									OFFSET 17.732719 0.121887 -4.201567
									CHANNELS 3 Xrotation Yrotation Zrotation
									JOINT newVegas:LeftHandRing2
									{
										OFFSET 2.733170 0.000000 0.000000
										CHANNELS 3 Xrotation Yrotation Zrotation
										JOINT newVegas:LeftHandRing3
										{
											OFFSET 3.178268 0.000000 0.000000
											CHANNELS 3 Xrotation Yrotation Zrotation
											End Site
											{
												OFFSET 0.119102 3.170624 0.185394
											}
										}
									}
								}
								JOINT newVegas:LeftHandPinky1
								{
									OFFSET 15.989624 -0.606689 -7.535461
									CHANNELS 3 Xrotation Yrotation Zrotation
									JOINT newVegas:LeftHandPinky2
									{
										OFFSET 2.538986 0.000000 0.000000
										CHANNELS 3 Xrotation Yrotation Zrotation
										JOINT newVegas:LeftHandPinky3
										{
											OFFSET 2.593102 0.000000 0.000000
											CHANNELS 3 Xrotation Yrotation Zrotation
											End Site
											{
												OFFSET -0.150902 2.584198 0.152708
											}
										}
									}
								}
							}
							JOINT newVegas:Left_Sleeve
							{
								OFFSET 0.267448 -0.649796 0.577675
								CHANNELS 3 Xrotation Yrotation Zrotation
								End Site
								{
									OFFSET 0.000000 15.991241 0.000000
								}
							}
							JOINT newVegas:Left_CapeC
							{
								OFFSET 15.715958 -8.608795 -6.935905
								CHANNELS 3 Xrotation Yrotation Zrotation
								JOINT newVegas:Left_CapeC1
								{
									OFFSET 0.000000 -8.688499 0.000000
									CHANNELS 3 Xrotation Yrotation Zrotation
									End Site
									{
										OFFSET 0.000000 8.688499 0.000000
									}
								}
							}
						}
						JOINT newVegas:Left_CapeB
						{
							OFFSET 26.118385 -8.608795 -7.079235
							CHANNELS 3 Xrotation Yrotation Zrotation
							JOINT newVegas:Left_CapeB1
							{
								OFFSET 0.000000 -8.688499 0.000000
								CHANNELS 3 Xrotation Yrotation Zrotation
								End Site
								{
									OFFSET 0.000000 8.688499 0.000000
								}
							}
						}
						JOINT newVegas:Left_CapeA
						{
							OFFSET 5.115639 -8.608795 -10.395809
							CHANNELS 3 Xrotation Yrotation Zrotation
							JOINT newVegas:Left_CapeA1
							{
								OFFSET 0.000000 -8.688499 0.000000
								CHANNELS 3 Xrotation Yrotation Zrotation
								End Site
								{
									OFFSET 0.000000 8.688499 0.000000
								}
							}
						}
					}
				}
				JOINT newVegas:RightShoulder
				{
					OFFSET -15.263000 10.923401 -0.547700
					CHANNELS 3 Xrotation Yrotation Zrotation
					JOINT newVegas:RightArm
					{
						OFFSET -25.438599 -2.830597 -13.032500
						CHANNELS 3 Xrotation Yrotation Zrotation
						JOINT newVegas:RightForeArm
						{
							OFFSET -29.960503 0.000000 0.000000
							CHANNELS 3 Xrotation Yrotation Zrotation
							JOINT newVegas:RightHand
							{
								OFFSET -27.849251 0.000000 0.000000
								CHANNELS 3 Xrotation Yrotation Zrotation
								JOINT newVegas:RightHandThumb1
								{
									OFFSET -4.487587 -3.305161 6.305391
									CHANNELS 3 Xrotation Yrotation Zrotation
									JOINT newVegas:RightHandThumb2
									{
										OFFSET -5.480453 -3.164139 3.164143
										CHANNELS 3 Xrotation Yrotation Zrotation
										JOINT newVegas:RightHandThumb3
										{
											OFFSET -5.159721 -2.978973 2.978967
											CHANNELS 3 Xrotation Yrotation Zrotation
											End Site
											{
												OFFSET -2.494507 5.926697 1.738678
											}
										}
									}
								}
								JOINT newVegas:RightHandIndex1
								{
									OFFSET -18.578728 -0.527832 5.208049
									CHANNELS 3 Xrotation Yrotation Zrotation
									JOINT newVegas:RightHandIndex2
									{
										OFFSET -3.192009 0.000000 0.000000
										CHANNELS 3 Xrotation Yrotation Zrotation
										JOINT newVegas:RightHandIndex3
										{
											OFFSET -3.835129 0.000000 0.000000
											CHANNELS 3 Xrotation Yrotation Zrotation
											End Site
											{
												OFFSET 0.034599 3.816971 0.371180
											}
										}
									}
								}
								JOINT newVegas:RightHandMiddle1
								{
									OFFSET -18.476105 0.000000 0.000000
									CHANNELS 3 Xrotation Yrotation Zrotation
									JOINT newVegas:RightHandMiddle2
									{
										OFFSET -3.324875 0.000000 0.000000
										CHANNELS 3 Xrotation Yrotation Zrotation
										JOINT newVegas:RightHandMiddle3
										{
											OFFSET -4.596550 0.000000 0.000000
											CHANNELS 3 Xrotation Yrotation Zrotation
											End Site
											{
												OFFSET -0.057701 4.578827 0.399218
											}
										}
									}
								}
								JOINT newVegas:RightHandRing1
								{
									OFFSET -17.732719 0.121887 -4.201567
									CHANNELS 3 Xrotation Yrotation Zrotation
									JOINT newVegas:RightHandRing2
									{
										OFFSET -2.733170 0.000000 0.000000
										CHANNELS 3 Xrotation Yrotation Zrotation
										JOINT newVegas:RightHandRing3
										{
											OFFSET -3.178268 0.000000 0.000000
											CHANNELS 3 Xrotation Yrotation Zrotation
											End Site
											{
												OFFSET -0.119102 3.170624 0.185394
											}
										}
									}
								}
								JOINT newVegas:RightHandPinky1
								{
									OFFSET -15.989624 -0.606689 -7.535461
									CHANNELS 3 Xrotation Yrotation Zrotation
									JOINT newVegas:RightHandPinky2
									{
										OFFSET -2.538986 0.000000 0.000000
										CHANNELS 3 Xrotation Yrotation Zrotation
										JOINT newVegas:RightHandPinky3
										{
											OFFSET -2.593102 0.000000 0.000000
											CHANNELS 3 Xrotation Yrotation Zrotation
											End Site
											{
												OFFSET 0.150902 2.584198 0.152708
											}
										}
									}
								}
							}
							JOINT newVegas:Right_CapeC
							{
								OFFSET -15.715958 -8.608795 -6.935905
								CHANNELS 3 Xrotation Yrotation Zrotation
								JOINT newVegas:Right_CapeC1
								{
									OFFSET 0.000000 -8.688499 0.000000
									CHANNELS 3 Xrotation Yrotation Zrotation
									End Site
									{
										OFFSET 0.000000 8.688499 0.000000
									}
								}
							}
							JOINT newVegas:Right_Sleeve
							{
								OFFSET -0.267448 -0.649994 0.577675
								CHANNELS 3 Xrotation Yrotation Zrotation
								End Site
								{
									OFFSET 0.000000 15.991302 0.000000
								}
							}
						}
						JOINT newVegas:Right_CapeA
						{
							OFFSET -5.115540 -8.608795 -10.395824
							CHANNELS 3 Xrotation Yrotation Zrotation
							JOINT newVegas:Right_CapeA1
							{
								OFFSET 0.000000 -8.688499 0.000000
								CHANNELS 3 Xrotation Yrotation Zrotation
								End Site
								{
									OFFSET 0.000000 8.688499 0.000000
								}
							}
						}
						JOINT newVegas:Right_CapeB
						{
							OFFSET -26.118187 -8.608795 -7.079266
							CHANNELS 3 Xrotation Yrotation Zrotation
							JOINT newVegas:Right_CapeB1
							{
								OFFSET 0.000000 -8.688499 0.000000
								CHANNELS 3 Xrotation Yrotation Zrotation
								End Site
								{
									OFFSET 0.000000 8.688499 0.000000
								}
							}
						}
					}
				}
				JOINT newVegas:Left_Collar
				{
					OFFSET 18.625099 8.655502 8.828100
					CHANNELS 3 Xrotation Yrotation Zrotation
					JOINT newVegas:Left_Collar1
					{
						OFFSET 14.783401 10.540405 -1.259500
						CHANNELS 3 Xrotation Yrotation Zrotation
						End Site
						{
							OFFSET 0.000000 18.199875 0.000000
						}
					}
				}
				JOINT newVegas:Collar_Back
				{
					OFFSET 0.000000 15.630707 -20.132601
					CHANNELS 3 Xrotation Yrotation Zrotation
					End Site
					{
						OFFSET 0.000000 22.523010 0.000000
					}
				}
				JOINT newVegas:Left_Peck
				{
					OFFSET 17.239599 -5.132599 25.482599
					CHANNELS 3 Xrotation Yrotation Zrotation
					End Site
					{
						OFFSET 0.000000 22.523010 0.000000
					}
				}
				JOINT newVegas:Right_Peck
				{
					OFFSET -17.239599 -5.132202 25.482599
					CHANNELS 3 Xrotation Yrotation Zrotation
					End Site
					{
						OFFSET 0.000000 22.523010 0.000000
					}
				}
				JOINT newVegas:Right_Collar
				{
					OFFSET -18.625099 8.655792 8.828100
					CHANNELS 3 Xrotation Yrotation Zrotation
					JOINT newVegas:Right_Collar1
					{
						OFFSET -14.783401 10.539993 -1.259500
						CHANNELS 3 Xrotation Yrotation Zrotation
						End Site
						{
							OFFSET 0.000000 18.199631 0.000000
						}
					}
				}
			}
		}
		JOINT newVegas:Belly
		{
			OFFSET 0.000000 -6.540398 9.014299
			CHANNELS 3 Xrotation Yrotation Zrotation
			End Site
			{
				OFFSET 0.000000 11.566666 0.000000
			}
		}
	}
	JOINT newVegas:ElvisFacialAnim_Joint
	{
		OFFSET 1.000000 -95.330101 -8.825800
		CHANNELS 3 Xrotation Yrotation Zrotation
		End Site
		{
			OFFSET 0.000000 35.315800 0.000000
		}
	}
}
MOTION
Frames: 4
Frame Time: 0.016667
-5.506926 90.225189 464.473114 178.422668 18.426262 -175.725003 0.000000 -0.000001 -0.000000 -12.040954 4.862240 -13.359618 33.721976 2.476520 2.378953 -22.982837 -0.119559 -0.187938 -0.000000 -0.000000 -0.000001 0.000001 -0.000002 -0.000000 -5.552307 -9.682303 -17.664715 47.506247 -8.851710 -1.367229 24.867259 -4.924808 29.864534 -0.000000 0.000000 -0.000002 -0.000001 0.000002 -0.000001 -8.278850 8.699601 -2.837947 2.885765 0.867785 -2.840125 2.918912 0.925577 -2.789146 -0.920490 -0.459968 -0.786981 -0.920491 -0.459967 -0.786982 -0.000000 0.000001 -0.000000 -0.920422 -0.459959 -0.786983 -0.920557 -0.459980 -0.786986 -0.000000 0.000000 0.000001 -0.000000 0.000001 -0.000000 2.179067 -9.179413 -8.047973 14.406949 29.963965 -77.628611 -0.000012 -34.684442 -0.000022 14.422656 3.046599 -0.816609 -6.684701 7.621262 19.674599 12.443660 25.448716 -7.963740 0.000001 -0.000002 -0.000003 -0.599922 -1.191959 -15.838722 0.763105 3.155592 -27.183127 0.000000 -0.000002 -0.000002 -0.513519 -1.737483 -12.002756 0.474074 2.515161 -21.345282 0.000000 -0.000001 -0.000002 0.001059 0.779660 -12.836424 0.906751 3.420411 -29.687124 0.000001 -0.000002 -0.000002 2.100237 10.721547 -11.319422 0.694473 -1.057939 -26.220973 0.000001 -0.000002 0.000000 -0.000000 -0.000001 -0.000002 -0.000000 -0.000001 -0.000002 -0.000000 -0.000001 -0.000002 -0.000000 0.000000 0.000000 -0.000000 0.000000 0.000000 -0.000000 0.000000 0.000000 -0.000000 -0.000000 0.000000 1.176339 8.510091 2.447321 54.046638 33.855895 65.975721 0.000027 63.444049 -0.000022 52.855521 43.637211 -78.072573 2.028288 4.773715 9.571607 4.642451 -8.639191 -0.222147 -0.000000 -0.000001 -0.000002 8.333991 12.771157 -38.552648 0.273793 -1.935642 16.100441 0.000000 0.000001 0.000001 3.496411 8.099774 -28.749356 0.565353 -2.751017 23.221777 0.000004 -0.000000 -0.000000 1.427748 5.041215 -20.610589 0.144911 -1.414964 11.694197 -0.000002 0.000001 -0.000002 -3.351268 -9.486524 -18.455431 0.124451 -1.312282 10.834515 -0.000001 0.000002 -0.000001 -0.000004 -0.000000 -0.000000 -0.000004 0.000000 0.000001 -0.000004 -0.000000 -0.000000 0.000001 -0.000003 0.000001 0.000001 -0.000003 0.000000 0.000001 -0.000003 0.000001 0.000001 -0.000003 0.000001 -0.000000 0.000000 0.000000 -0.000000 0.000000 0.000000 -0.000000 0.000000 0.000000 -0.000000 0.000000 0.000000 -0.000000 0.000000 0.000000 -0.000000 0.000000 0.000000 -0.000000 0.000000 0.000000 0.000001 -0.000000 0.000000 0.000000 -0.000001 -0.000000 
-5.493142 89.807831 463.899384 178.544109 17.861184 -175.482067 0.000000 -0.000001 -0.000000 -12.075404 5.028463 -13.479584 35.174723 1.749749 2.175406 -24.146993 -0.110255 -0.376370 0.000000 -0.000001 -0.000001 0.000001 0.000001 0.000000 -9.786415 -8.173062 -19.451045 53.669571 -8.722730 -1.636288 25.855184 -3.257297 29.857284 -0.000000 -0.000001 -0.000000 0.000004 -0.000001 0.000002 -8.079625 8.295995 -2.492170 2.875275 0.818130 -2.931603 2.908801 0.873101 -2.883820 -0.866730 -0.321941 -0.863600 -0.866733 -0.321943 -0.863596 0.000000 -0.000000 0.000000 -0.866732 -0.321934 -0.863599 -0.866524 -0.321927 -0.863608 -0.000000 -0.000000 0.000001 0.000000 -0.000000 -0.000000 2.350523 -9.842295 -8.206663 12.252319 28.921295 -76.587198 0.000001 -33.323933 0.000012 15.503474 3.149336 -1.500113 -6.700402 7.648510 20.154606 12.316230 25.187817 -7.880617 -0.000001 -0.000001 -0.000001 -0.634959 -1.349608 -15.696728 0.763054 3.155490 -27.182235 0.000001 -0.000001 0.000003 -0.502570 -1.793118 -11.613235 0.485396 2.543908 -21.601810 0.000001 -0.000000 -0.000000 -0.009625 0.728891 -12.781708 0.923283 3.449199 -29.963114 0.000002 0.000001 0.000005 1.964093 10.449551 -10.849560 0.730367 -0.986135 -26.885465 0.000000 0.000002 0.000002 -0.000000 0.000001 -0.000000 -0.000000 0.000001 -0.000000 -0.000000 0.000001 -0.000001 -0.000001 -0.000001 0.000001 -0.000000 -0.000001 0.000001 -0.000001 -0.000001 0.000001 -0.000000 -0.000002 0.000001 1.147073 8.186080 2.395672 53.514136 32.226096 67.039946 -0.000003 64.113620 0.000009 51.483859 43.898411 -75.395781 1.630028 4.544521 9.876809 4.619485 -8.628190 -0.234495 -0.000000 -0.000000 -0.000001 8.024295 12.463472 -38.292766 0.272153 -1.929965 16.051732 0.000001 -0.000001 -0.000001 3.286596 7.766318 -28.519706 0.563628 -2.746976 23.185632 0.000003 -0.000001 0.000000 1.292479 4.713896 -20.382826 0.143449 -1.407887 11.634675 -0.000001 0.000001 0.000000 -3.406029 -9.828167 -18.246084 0.124785 -1.314083 10.849487 -0.000004 -0.000000 0.000002 -0.000002 -0.000002 -0.000002 -0.000002 -0.000002 0.000000 -0.000002 -0.000002 -0.000003 0.000001 0.000000 0.000002 0.000001 0.000001 0.000001 0.000001 0.000000 0.000002 0.000001 0.000001 0.000002 -0.000000 0.000001 0.000000 -0.000000 0.000001 0.000000 -0.000000 0.000001 0.000000 -0.000000 0.000001 0.000000 -0.000000 0.000001 0.000000 -0.000000 0.000001 0.000000 -0.000000 0.000001 0.000000 0.000000 -0.000001 0.000000 0.000000 -0.000001 -0.000000 
-5.410682 89.313744 463.354523 178.679934 17.454475 -175.195322 -0.000000 0.000001 0.000000 -12.194878 5.110141 -13.715250 36.800885 1.265883 2.060820 -25.422119 -0.072371 -0.575031 -0.000000 0.000001 0.000000 0.000000 0.000002 -0.000000 -14.556583 -6.020445 -20.837568 60.205966 -8.550180 -1.952618 27.684710 -1.902797 29.175098 0.000001 0.000001 0.000002 0.000001 0.000001 -0.000003 -7.659934 7.826683 -2.283527 2.875484 0.762741 -2.993522 2.908380 0.813673 -2.949340 -0.838155 -0.191572 -0.921383 -0.838155 -0.191577 -0.921383 0.000000 0.000001 -0.000000 -0.838155 -0.191570 -0.921378 -0.838017 -0.191564 -0.921387 -0.000000 -0.000000 -0.000001 0.000000 0.000001 0.000000 2.546454 -10.572189 -8.378384 9.922144 27.756098 -75.391990 -0.000003 -32.041903 -0.000004 16.831398 3.251079 -2.443225 -6.700551 7.737805 20.690868 12.203149 24.954410 -7.806896 0.000001 0.000002 -0.000001 -0.673812 -1.516360 -15.590026 0.762996 3.155369 -27.181165 0.000001 -0.000001 -0.000002 -0.478439 -1.803007 -11.152364 0.496714 2.572264 -21.855250 -0.000002 -0.000000 0.000001 -0.003889 0.744791 -12.628204 0.940820 3.479379 -30.253240 0.000002 0.000001 -0.000000 1.821259 10.186836 -10.297947 0.772733 -0.903973 -27.650735 -0.000000 -0.000002 -0.000000 -0.000000 0.000000 0.000000 -0.000000 0.000000 0.000000 -0.000000 0.000000 0.000000 0.000000 -0.000001 0.000000 0.000000 -0.000002 0.000000 0.000000 -0.000001 0.000000 0.000000 -0.000002 0.000000 1.128168 7.962234 2.448088 52.967174 30.554971 67.976904 0.000010 64.710838 -0.000007 50.178572 44.006000 -72.730149 1.538519 4.517428 9.972490 4.594825 -8.615006 -0.248072 -0.000001 -0.000001 -0.000000 7.968357 12.398173 -38.277780 0.271523 -1.927793 16.033108 0.000000 -0.000002 0.000001 3.250986 7.703721 -28.510813 0.563245 -2.746072 23.177685 -0.000003 -0.000001 -0.000001 1.270421 4.657450 -20.365548 0.142501 -1.403329 11.596574 -0.000000 -0.000001 -0.000001 -3.420588 -9.891944 -18.227588 0.124323 -1.311598 10.828820 0.000000 0.000002 -0.000001 -0.000003 0.000000 -0.000001 -0.000004 -0.000000 -0.000001 -0.000003 -0.000000 -0.000002 -0.000000 -0.000001 -0.000000 -0.000000 0.000000 -0.000001 -0.000000 -0.000001 -0.000000 0.000000 -0.000000 -0.000000 -0.000000 -0.000000 -0.000000 -0.000000 -0.000000 -0.000000 -0.000000 -0.000000 -0.000000 -0.000000 -0.000000 -0.000000 -0.000000 -0.000000 -0.000000 -0.000000 -0.000000 -0.000000 -0.000000 -0.000000 -0.000000 -0.000000 -0.000000 -0.000000 -0.000000 0.000001 0.000000 
-5.234087 88.716103 462.816528 178.896342 17.169550 -174.880041 0.000000 -0.000002 -0.000000 -12.292943 5.168355 -14.066170 38.632216 1.020106 1.998477 -26.873753 -0.048911 -0.627305 -0.000000 0.000001 0.000001 -0.000001 0.000000 -0.000001 -19.723493 -3.258505 -21.637872 66.846672 -8.424967 -2.269534 30.550367 -0.605114 27.582462 0.000000 0.000000 0.000002 -0.000002 0.000000 -0.000003 -6.961390 7.271583 -2.244220 2.893129 0.698840 -3.014761 2.924216 0.744275 -2.974639 -0.846292 -0.066993 -0.962333 -0.846293 -0.066997 -0.962334 -0.000000 0.000001 0.000000 -0.846222 -0.066989 -0.962336 -0.846361 -0.067001 -0.962331 -0.000000 -0.000000 0.000000 -0.000000 0.000001 0.000000 2.756978 -11.327253 -8.553149 7.462149 26.390229 -74.021718 0.000004 -30.901569 -0.000002 18.404085 3.328759 -3.716042 -6.679919 7.905306 21.241957 12.115533 24.772319 -7.749839 0.000001 0.000000 0.000001 -0.715149 -1.681679 -15.537905 0.762932 3.155241 -27.179846 -0.000002 -0.000001 0.000000 -0.441820 -1.753594 -10.653327 0.508281 2.600895 -22.111571 -0.000001 -0.000002 -0.000003 0.018855 0.833781 -12.381409 0.958593 3.509628 -30.544845 0.000003 -0.000002 -0.000002 1.680020 9.950124 -9.693206 0.819470 -0.816305 -28.473225 -0.000000 -0.000002 0.000002 0.000000 0.000002 -0.000001 0.000000 0.000002 -0.000001 0.000000 0.000002 -0.000001 0.000000 0.000001 0.000001 -0.000000 0.000001 0.000001 0.000000 0.000001 0.000001 -0.000000 0.000001 0.000001 1.119225 7.836397 2.584075 52.387339 28.918854 68.720664 0.000001 65.210405 0.000012 49.212783 43.993453 -70.307522 1.612534 4.590519 9.914289 4.591444 -8.611605 -0.250455 0.000000 -0.000002 -0.000001 8.043921 12.469083 -38.358083 0.271723 -1.928490 16.039219 -0.000002 -0.000001 -0.000001 3.304396 7.786603 -28.584700 0.563705 -2.747161 23.187246 -0.000000 0.000001 -0.000000 1.306149 4.743792 -20.435248 0.142644 -1.403920 11.601402 -0.000003 -0.000001 0.000001 -3.408490 -9.802903 -18.290289 0.124123 -1.310601 10.820397 -0.000004 0.000001 0.000001 -0.000004 0.000000 -0.000002 -0.000004 -0.000001 -0.000001 -0.000004 -0.000000 -0.000001 0.000002 0.000001 -0.000002 0.000002 0.000002 -0.000001 0.000002 0.000001 -0.000002 0.000002 0.000002 -0.000000 -0.000000 0.000001 -0.000000 -0.000000 0.000001 -0.000000 -0.000000 0.000001 -0.000000 -0.000000 0.000001 -0.000000 -0.000000 0.000001 -0.000000 -0.000000 0.000001 -0.000000 -0.000000 0.000001 -0.000000 -0.000001 0.000001 0.000000 0.000000 -0.000002 -0.000000 
